<svg width="16" height="16" viewBox="0 0 16 16" fill="none" xmlns="http://www.w3.org/2000/svg">
<path d="M8 1L8 6" stroke="#4723AD" stroke-linecap="round"/>
<path d="M8 10L8 15" stroke="#4723AD" stroke-linecap="round"/>
<path d="M3.3335 7.66667C3.3335 7.04359 3.3335 6.73205 3.46747 6.5C3.55524 6.34798 3.68148 6.22174 3.8335 6.13397C4.06555 6 4.37709 6 5.00016 6H11.0002C11.6232 6 11.9348 6 12.1668 6.13397C12.3188 6.22174 12.4451 6.34798 12.5329 6.5C12.6668 6.73205 12.6668 7.04359 12.6668 7.66667C12.6668 8.28974 12.6668 8.60128 12.5329 8.83333C12.4451 8.98535 12.3188 9.11159 12.1668 9.19936C11.9348 9.33333 11.6232 9.33333 11.0002 9.33333H5.00016C4.37709 9.33333 4.06555 9.33333 3.8335 9.19936C3.68148 9.11159 3.55524 8.98535 3.46747 8.83333C3.3335 8.60128 3.3335 8.28974 3.3335 7.66667Z" stroke="#4723AD"/>
</svg>
