<svg width="16" height="16" viewBox="0 0 16 16" fill="none" xmlns="http://www.w3.org/2000/svg">
<path d="M2 1.33301V14.6663" stroke="#4723AD" stroke-linecap="round"/>
<path d="M4.66675 7.66667C4.66675 7.04359 4.66675 6.73205 4.80072 6.5C4.88849 6.34798 5.01473 6.22174 5.16675 6.13397C5.3988 6 5.71034 6 6.33341 6H12.3334C12.9565 6 13.268 6 13.5001 6.13397C13.6521 6.22174 13.7783 6.34798 13.8661 6.5C14.0001 6.73205 14.0001 7.04359 14.0001 7.66667C14.0001 8.28974 14.0001 8.60128 13.8661 8.83333C13.7783 8.98535 13.6521 9.11159 13.5001 9.19936C13.268 9.33333 12.9565 9.33333 12.3334 9.33333H6.33341C5.71034 9.33333 5.3988 9.33333 5.16675 9.19936C5.01473 9.11159 4.88849 8.98535 4.80072 8.83333C4.66675 8.60128 4.66675 8.28974 4.66675 7.66667Z" stroke="#4723AD"/>
</svg>
