<svg width="41" height="11" viewBox="0 0 41 11" fill="none" xmlns="http://www.w3.org/2000/svg">
<path fill-rule="evenodd" clip-rule="evenodd" d="M2.51143 9.88575H0.5V0.5H2.51143V9.88575ZM7.53306 0.5H5.56525C5.56525 2.22722 4.82371 3.81253 3.53083 4.84969L2.75122 5.47494L5.77197 9.88613H8.2556L5.47612 5.82716C6.79364 4.42217 7.53306 2.53194 7.53306 0.5ZM10.7414 9.88335H8.8418V0.501953H10.7414V9.88335ZM16.4806 3.39422V3.80935C15.968 3.4349 15.3494 3.21484 14.6821 3.21484C12.9162 3.21484 11.4846 4.74793 11.4846 6.6391C11.4846 8.53027 12.9162 10.0634 14.6821 10.0634C15.3494 10.0634 15.968 9.84331 16.4806 9.46895V9.8837H18.295V3.39422H16.4806ZM16.4751 6.64021C16.4751 7.56234 15.7391 8.30991 14.8311 8.30991C13.9232 8.30991 13.1871 7.56234 13.1871 6.64021C13.1871 5.71809 13.9232 4.9707 14.8311 4.9707C15.7391 4.9707 16.4751 5.71809 16.4751 6.64021ZM35.6213 3.80935V3.39422H37.4356V9.8837H35.6213V9.46895C35.1088 9.84331 34.4901 10.0634 33.8228 10.0634C32.0568 10.0634 30.6252 8.53027 30.6252 6.6391C30.6252 4.74793 32.0568 3.21484 33.8228 3.21484C34.4901 3.21484 35.1088 3.4349 35.6213 3.80935ZM33.9717 8.30991C34.8797 8.30991 35.6156 7.56234 35.6156 6.64021C35.6156 5.71809 34.8797 4.9707 33.9717 4.9707C33.0637 4.9707 32.3278 5.71809 32.3278 6.64021C32.3278 7.56234 33.0637 8.30991 33.9717 8.30991ZM27.4013 3.21875C26.6765 3.21875 25.9907 3.45971 25.5321 4.12451V3.39368H23.7256V9.88279H25.5543V6.47253C25.5543 5.4857 26.1722 5.00245 26.9162 5.00245C27.7136 5.00245 28.172 5.51256 28.172 6.4591V9.88279H29.9841V5.75598C29.9841 4.24579 28.8629 3.21875 27.4013 3.21875ZM21.1016 3.39258V4.23779C21.4653 3.73079 22.1429 3.39296 22.8797 3.39296V5.28129L22.8696 5.28087C22.8658 5.28065 22.8621 5.28044 22.8582 5.28044C22.1403 5.28044 21.1057 5.82991 21.1057 6.85212V9.88197H19.244V3.39258H21.1016ZM38.223 8.80037C38.223 8.12691 38.7327 7.58105 39.3615 7.58105C39.9903 7.58105 40.5001 8.12691 40.5001 8.80037C40.5001 9.47363 39.9903 10.0196 39.3615 10.0196C38.7327 10.0196 38.223 9.47363 38.223 8.80037Z" fill="#17120F"/>
</svg>
