<svg width="41" height="15" viewBox="0 0 41 15" fill="none" xmlns="http://www.w3.org/2000/svg">
<path fill-rule="evenodd" clip-rule="evenodd" d="M29.232 0.708008C28.3266 0.708008 27.5912 1.45013 27.5912 2.36501C27.5912 3.28043 28.3266 4.02094 29.232 4.02094C30.1391 4.02094 30.8739 3.28043 30.8739 2.36501C30.8739 1.45013 30.1391 0.708008 29.232 0.708008ZM5.56261 6.26094C5.14188 6.23349 4.16712 6.16945 4.16712 5.28417C4.16712 4.21592 5.56954 4.21592 6.09586 4.21592C7.02157 4.21592 8.21923 4.49146 9.07562 4.75031C9.07562 4.75031 9.55234 4.92037 9.95814 5.09366L9.996 5.10442V2.17843L9.94534 2.16283C8.93431 1.80603 7.76064 1.46322 5.58341 1.46322C1.82991 1.46322 0.5 3.66914 0.5 5.56079C0.5 6.65003 0.962855 9.21599 5.26026 9.51144L5.26425 9.51169C5.63251 9.53446 6.59284 9.59386 6.59284 10.5054C6.59284 11.261 5.80097 11.7055 4.46946 11.7055C3.01051 11.7055 1.59422 11.331 0.734627 10.9742V13.9868C2.02188 14.3285 3.47337 14.4975 5.17441 14.4975C8.84313 14.4975 10.4876 12.41 10.4876 10.3402C10.4876 7.99436 8.64849 6.46974 5.56261 6.26094ZM16.6401 4.96049C16.6472 4.94159 16.6529 4.92671 16.657 4.91607H20.587C20.475 5.27717 19.7738 7.4562 18.1752 9.50229C18.1752 9.50229 19.9557 12.6511 20.3625 14.3592H16.2475C16.2475 14.3592 15.7558 12.0914 14.7608 10.5845V14.3592H11.3246V2.14937L14.7608 1.46322V8.19994C15.9784 6.71369 16.5209 5.27632 16.6401 4.96049ZM37.1699 14.3592V2.06434L40.5 1.46322V14.3592H37.1699ZM25.6901 4.78662C22.6139 4.88672 21.0509 6.28056 21.0509 9.05102V14.3573H24.4082V10.0294C24.4082 8.37132 24.6236 7.66041 26.5737 7.5926V4.83559C26.2458 4.76509 25.6901 4.78662 25.6901 4.78662ZM27.5685 14.3591V4.92675H30.898V14.3591H27.5685ZM32.309 2.06434L35.637 1.46322V14.3592H32.309V2.06434Z" fill="#862165"/>
</svg>
