<svg width="25" height="17" viewBox="0 0 25 17" fill="none" xmlns="http://www.w3.org/2000/svg">
<rect width="25" height="17" rx="2.5" fill="white"/>
<path d="M5.76468 5.06022C5.78582 4.21442 6.54612 3.48436 7.39338 3.472C8.2394 3.46941 9.08555 3.47163 9.93158 3.47088C9.92926 6.30073 9.93616 9.13089 9.92809 11.9606C9.8955 12.7961 9.14348 13.5123 8.30546 13.527C7.45784 13.5301 6.61011 13.5275 5.76245 13.5283V9.99587C6.58581 10.1888 7.44923 10.2709 8.2892 10.1429C8.79129 10.0628 9.34063 9.8183 9.51062 9.30174C9.63571 8.85988 9.56529 8.39486 9.58391 7.94135V6.88815H8.13026C8.12373 7.58471 8.14364 8.28248 8.11974 8.9782C8.08056 9.40583 7.65351 9.67753 7.24681 9.66302C6.74243 9.66831 5.74292 9.30053 5.74292 9.30053C5.74041 7.99547 5.75756 6.36107 5.76468 5.06034V5.06022Z" fill="url(#paint0_linear_1_8314)"/>
<path d="M15.9416 8.70308C16.3085 8.71099 16.6775 8.68701 17.0429 8.71553C17.413 8.784 17.5022 9.3396 17.1734 9.52156C16.9491 9.64144 16.6826 9.56621 16.4393 9.58736H15.9416V8.70308ZM17.2551 7.70219C17.3366 7.98753 17.0592 8.24372 16.7821 8.20442H15.9416C15.9475 7.93534 15.93 7.64328 15.9501 7.38836C16.2868 7.39777 16.6266 7.36918 16.9614 7.40331C17.1052 7.43915 17.2256 7.55641 17.2551 7.70219ZM19.2779 3.47072C19.2935 4.01564 19.2802 4.58937 19.2846 5.14534C19.2836 7.40574 19.2868 9.66607 19.2829 11.9266C19.2681 12.7737 18.511 13.5098 17.6627 13.5267C16.8135 13.5302 15.9642 13.5273 15.1149 13.5282V10.1109C16.0403 10.1062 16.9661 10.1206 17.891 10.1038C18.3201 10.0771 18.7901 9.79631 18.8101 9.32805C18.8606 8.85776 18.4135 8.53248 17.989 8.4811C17.8258 8.4769 17.8306 8.43393 17.989 8.41519C18.3939 8.32841 18.7118 7.91286 18.5927 7.49669C18.4912 7.05897 18.0033 6.88955 17.5975 6.8904C16.7701 6.88482 15.9426 6.88962 15.1151 6.888C15.1205 6.25004 15.104 5.6114 15.124 4.97391C15.1896 4.14206 15.9657 3.45606 16.8021 3.47094C17.6275 3.47082 18.4527 3.47082 19.2779 3.47079V3.47072Z" fill="url(#paint1_linear_1_8314)"/>
<path d="M10.4736 7.31312C10.3971 7.32922 10.4582 7.05466 10.4386 6.9505C10.4439 6.29196 10.4277 5.63271 10.4475 4.97464C10.5129 4.13927 11.295 3.45156 12.1348 3.47111H14.608C14.6056 6.30096 14.6125 9.13113 14.6045 11.9608C14.5718 12.7963 13.8198 13.5125 12.9817 13.5273C12.1341 13.5305 11.2863 13.5278 10.4386 13.5286V9.6583C11.0176 10.1294 11.8044 10.2027 12.5257 10.204C13.0695 10.2038 13.61 10.1206 14.1381 9.99629V9.28724C13.543 9.58136 12.8434 9.76818 12.1838 9.5992C11.7236 9.48562 11.3896 9.0446 11.397 8.57366C11.3437 8.08391 11.6332 7.56685 12.1185 7.42126C12.7211 7.23419 13.3778 7.37726 13.9426 7.62047C14.0636 7.6833 14.1864 7.76124 14.1381 7.56066V7.00334C13.1934 6.78047 12.1881 6.69845 11.2391 6.94091C10.9644 7.01776 10.6967 7.1343 10.4736 7.31318V7.31312Z" fill="url(#paint2_linear_1_8314)"/>
<defs>
<linearGradient id="paint0_linear_1_8314" x1="5.67375" y1="8.59591" x2="9.86322" y2="8.59591" gradientUnits="userSpaceOnUse">
<stop stop-color="#0F6EB6"/>
<stop offset="1" stop-color="#006DBA"/>
</linearGradient>
<linearGradient id="paint1_linear_1_8314" x1="15.0865" y1="8.28442" x2="19.2583" y2="8.28442" gradientUnits="userSpaceOnUse">
<stop stop-color="#58B03A"/>
<stop offset="1" stop-color="#55B330"/>
</linearGradient>
<linearGradient id="paint2_linear_1_8314" x1="10.4325" y1="8.38224" x2="14.6072" y2="8.38224" gradientUnits="userSpaceOnUse">
<stop stop-color="#DE0D3D"/>
<stop offset="1" stop-color="#E30138"/>
</linearGradient>
</defs>
</svg>
