<svg width="24" height="17" viewBox="0 0 24 17" fill="none" xmlns="http://www.w3.org/2000/svg">
<rect width="24" height="17" rx="2.5" fill="white"/>
<path d="M7.42463 3.54395H11.2069C11.7348 3.54395 12.0632 3.98848 11.9401 4.53567L10.1791 12.3453C10.0549 12.8906 9.52626 13.3355 8.99793 13.3355H5.21605C4.68882 13.3355 4.3597 12.8906 4.48287 12.3453L6.24451 4.53567C6.36768 3.98848 6.89601 3.54395 7.42463 3.54395Z" fill="#E21836"/>
<path d="M10.8919 3.54199H15.2414C15.7693 3.54199 15.5312 3.98653 15.4071 4.53372L13.6464 12.3434C13.5229 12.8886 13.5614 13.3336 13.0325 13.3336H8.68297C8.15399 13.3336 7.82663 12.8886 7.9509 12.3434L9.71144 4.53372C9.83644 3.98653 10.3637 3.54199 10.8919 3.54199Z" fill="#00447C"/>
<path d="M15.069 3.54199H18.8512C19.3799 3.54199 19.7083 3.98653 19.5841 4.53372L17.8235 12.3434C17.6992 12.8886 17.1703 13.3336 16.6416 13.3336H12.8611C12.3322 13.3336 12.0041 12.8886 12.128 12.3434L13.8889 4.53372C14.012 3.98653 14.54 3.54199 15.069 3.54199Z" fill="#007B84"/>
<path d="M8.41225 6.04504C8.02331 6.04913 7.90844 6.04504 7.87175 6.03609C7.85764 6.10532 7.59518 7.35598 7.59444 7.35702C7.53793 7.61005 7.49681 7.79042 7.35715 7.90688C7.27786 7.97459 7.18531 8.00726 7.078 8.00726C6.90551 8.00726 6.80502 7.91879 6.78815 7.75099L6.78493 7.69338C6.78493 7.69338 6.83748 7.35445 6.83748 7.35255C6.83748 7.35255 7.11294 6.21283 7.16226 6.06218C7.16484 6.05361 7.16558 6.04913 7.16622 6.04504C6.63005 6.0499 6.535 6.04504 6.52846 6.03609C6.52486 6.04837 6.51159 6.11903 6.51159 6.11903L6.23032 7.40359L6.20616 7.51254L6.15942 7.86889C6.15942 7.97459 6.17952 8.06087 6.21953 8.13382C6.34767 8.36513 6.7132 8.39979 6.91998 8.39979C7.18641 8.39979 7.43634 8.34132 7.60523 8.23457C7.89839 8.05563 7.97509 7.77594 8.04349 7.52739L8.07521 7.39988C8.07521 7.39988 8.35897 6.21617 8.40718 6.06218C8.40902 6.05361 8.40976 6.04913 8.41225 6.04504ZM9.37772 6.99995C9.30932 6.99995 9.18431 7.01709 9.07202 7.07394C9.03127 7.09556 8.99274 7.12051 8.95208 7.14537L8.98878 7.00852L8.96868 6.98547C8.73055 7.03528 8.67727 7.04195 8.4573 7.07394L8.43887 7.08661C8.41333 7.30535 8.39065 7.46982 8.29597 7.89978C8.25993 8.05824 8.2225 8.21823 8.18498 8.37631L8.19512 8.3964C8.42052 8.38412 8.48892 8.38412 8.68483 8.38745L8.70068 8.36965C8.72557 8.23794 8.7288 8.20709 8.78393 7.94035C8.80984 7.81388 8.86386 7.536 8.8905 7.43706C8.93945 7.41363 8.98776 7.39058 9.03386 7.39058C9.14365 7.39058 9.13029 7.48953 9.12604 7.52895C9.12134 7.59514 9.08133 7.81131 9.04031 7.99691L9.01293 8.11671C8.99385 8.20518 8.97292 8.29118 8.95384 8.37888L8.96213 8.3964C9.18431 8.38412 9.25207 8.38412 9.44179 8.38745L9.4641 8.36965C9.4984 8.16395 9.50845 8.1089 9.56929 7.80941L9.5999 7.6718C9.65936 7.40249 9.68923 7.26593 9.64424 7.1547C9.59667 7.03004 9.48254 6.99995 9.37772 6.99995ZM10.4563 7.28192C10.3382 7.30534 10.2628 7.32096 10.188 7.33106C10.1138 7.34334 10.0414 7.35448 9.92728 7.37086L9.91824 7.37934L9.90995 7.3861C9.89806 7.4739 9.88976 7.5498 9.87399 7.63903C9.86063 7.73131 9.84007 7.83616 9.8066 7.98681C9.7807 8.10213 9.76733 8.14232 9.75258 8.18289C9.7382 8.22346 9.72234 8.26288 9.69321 8.3763L9.70003 8.38678L9.70575 8.3964C9.81241 8.39116 9.8822 8.38744 9.95392 8.38678C10.0256 8.38411 10.0998 8.38678 10.2146 8.38744L10.2247 8.37897L10.2355 8.36964C10.2521 8.26736 10.2546 8.23984 10.2647 8.18994C10.2747 8.13642 10.2921 8.06233 10.3346 7.86444C10.3547 7.77149 10.3771 7.67884 10.3979 7.58399C10.4196 7.48952 10.4422 7.39648 10.4638 7.30353L10.4606 7.2923L10.4563 7.28192ZM10.4588 6.90174C10.3515 6.83632 10.1631 6.85708 10.0364 6.94745C9.90998 7.03601 9.89559 7.16172 10.0025 7.228C10.108 7.29161 10.2971 7.27266 10.4227 7.18153C10.5488 7.09106 10.5646 6.9665 10.4588 6.90174ZM11.1077 8.4169C11.3248 8.4169 11.5474 8.35509 11.7149 8.17168C11.8438 8.02293 11.9029 7.80162 11.9233 7.71048C11.99 7.40841 11.9381 7.26738 11.8729 7.18148C11.7739 7.05054 11.5989 7.00854 11.4174 7.00854C11.3083 7.00854 11.0483 7.01968 10.8452 7.21309C10.6993 7.35261 10.632 7.54192 10.5913 7.72343C10.5503 7.90837 10.5031 8.24129 10.7995 8.36519C10.8909 8.40576 11.0227 8.4169 11.1077 8.4169ZM11.0908 7.73724C11.1408 7.5085 11.1999 7.31651 11.3508 7.31651C11.4689 7.31651 11.4775 7.45936 11.425 7.68886C11.4156 7.73981 11.3724 7.92922 11.3141 8.00988C11.2733 8.0694 11.2251 8.1055 11.1718 8.1055C11.156 8.1055 11.0616 8.1055 11.0602 7.96084C11.0594 7.88942 11.0735 7.81647 11.0908 7.73724ZM12.4661 8.38748L12.483 8.36967C12.5071 8.23797 12.511 8.20702 12.5643 7.94038C12.591 7.81391 12.6461 7.53603 12.672 7.43708C12.7211 7.41356 12.7685 7.39052 12.8161 7.39052C12.9252 7.39052 12.9119 7.48946 12.9076 7.52889C12.9036 7.59517 12.8636 7.81124 12.8218 7.99685L12.7959 8.11665C12.7761 8.20521 12.7545 8.29111 12.7354 8.37891L12.7437 8.39643C12.9666 8.38415 13.0318 8.38415 13.2227 8.38748L13.2457 8.36967C13.2792 8.16388 13.2882 8.10884 13.3509 7.80943L13.3808 7.67173C13.4405 7.40242 13.4707 7.26596 13.4265 7.15473C13.3775 7.03007 13.2627 6.99998 13.1593 6.99998C13.0908 6.99998 12.9652 7.01702 12.8535 7.07397C12.8136 7.09559 12.7736 7.12044 12.7343 7.1454L12.7685 7.00855L12.7502 6.98541C12.5122 7.03531 12.4578 7.04197 12.2381 7.07397L12.2212 7.08664C12.1946 7.30538 12.1729 7.46975 12.0782 7.89981C12.0422 8.05827 12.0047 8.21826 11.9673 8.37634L11.9774 8.39643C12.2031 8.38415 12.2705 8.38415 12.4661 8.38748ZM14.1038 8.39639C14.1179 8.32573 14.2011 7.9069 14.2018 7.9069C14.2018 7.9069 14.2727 7.5996 14.2771 7.58845C14.2771 7.58845 14.2994 7.55646 14.3217 7.54379H14.3545C14.6642 7.54379 15.0138 7.54379 15.2879 7.33552C15.4744 7.19268 15.6019 6.98174 15.6588 6.72538C15.6736 6.66253 15.6844 6.58777 15.6844 6.51302C15.6844 6.41484 15.6653 6.3177 15.6102 6.2418C15.4705 6.03982 15.1921 6.03611 14.8709 6.03458C14.8698 6.03458 14.7125 6.03611 14.7125 6.03611C14.3012 6.04134 14.1363 6.03982 14.0685 6.03125C14.0628 6.0622 14.052 6.11724 14.052 6.11724C14.052 6.11724 13.9047 6.82252 13.9047 6.82366C13.9047 6.82366 13.5522 8.32315 13.5356 8.39381C13.8947 8.38934 14.0419 8.38934 14.1038 8.39639ZM14.3768 7.14354C14.3768 7.14354 14.5334 6.43969 14.5327 6.44236L14.5378 6.40627L14.54 6.37874L14.6026 6.38541C14.6026 6.38541 14.9256 6.41408 14.9332 6.41484C15.0607 6.46578 15.1132 6.59711 15.0765 6.76852C15.0431 6.92518 14.9447 7.05688 14.8183 7.12049C14.7142 7.17439 14.5867 7.17887 14.4554 7.17887H14.3704L14.3768 7.14354ZM15.352 7.75028C15.3106 7.93255 15.2631 8.26547 15.558 8.38413C15.652 8.42546 15.7363 8.43774 15.8219 8.43327C15.9124 8.42822 15.9962 8.38137 16.0738 8.31394C16.0668 8.34166 16.0598 8.36937 16.0528 8.39718L16.0661 8.41498C16.2783 8.40575 16.3441 8.40575 16.5739 8.40756L16.5947 8.39118C16.6283 8.18738 16.6599 7.9895 16.7471 7.59962C16.7896 7.41288 16.832 7.22794 16.8756 7.04196L16.8688 7.02148C16.6315 7.06691 16.5681 7.07662 16.3398 7.11005L16.3225 7.12462C16.3202 7.14357 16.3178 7.16176 16.3156 7.17994C16.2801 7.12071 16.2287 7.07014 16.1493 7.03862C16.0478 6.99739 15.8094 7.05053 15.6044 7.24327C15.4604 7.38088 15.3913 7.56944 15.352 7.75028ZM15.8504 7.76142C15.9012 7.53677 15.9596 7.34669 16.1108 7.34669C16.2064 7.34669 16.2567 7.43783 16.2465 7.59324C16.2383 7.632 16.2296 7.67286 16.2192 7.71904C16.204 7.7858 16.1876 7.85198 16.1717 7.91826C16.1555 7.96359 16.1366 8.00635 16.1158 8.03483C16.0769 8.09177 15.9844 8.1271 15.9311 8.1271C15.916 8.1271 15.8227 8.1271 15.8194 7.98502C15.8187 7.91426 15.8328 7.84141 15.8504 7.76142ZM18.453 7.01966L18.4346 6.99805C18.1998 7.04718 18.1573 7.05499 17.9416 7.08509L17.9257 7.10147C17.925 7.10413 17.9243 7.10823 17.9232 7.11194L17.9225 7.10823C17.7619 7.49096 17.7666 7.40839 17.6359 7.7097C17.6351 7.69599 17.6351 7.68742 17.6344 7.67285L17.6017 7.01966L17.5811 6.99805C17.3352 7.04718 17.3294 7.05499 17.1022 7.08509L17.0845 7.10147C17.082 7.10927 17.082 7.11784 17.0805 7.12718L17.082 7.13051C17.1104 7.2804 17.1036 7.24698 17.1321 7.48353C17.1453 7.59961 17.163 7.71637 17.1763 7.83102C17.1987 8.02291 17.2113 8.11738 17.2386 8.41021C17.0852 8.67172 17.0489 8.77066 16.9012 9.00016L16.9022 9.00245L16.7983 9.17234C16.7864 9.19024 16.7756 9.20253 16.7605 9.20777C16.7439 9.21624 16.7223 9.21776 16.6923 9.21776H16.6347L16.5491 9.51203L16.8429 9.51726C17.0154 9.5165 17.1238 9.43318 17.1821 9.32118L17.3669 8.99416H17.3639L17.3834 8.97112C17.5076 8.69476 18.453 7.01966 18.453 7.01966ZM15.352 10.8843H15.2274L15.6887 9.30819H15.8417L15.8903 9.14582L15.895 9.32637C15.8893 9.43798 15.9743 9.53693 16.1976 9.52055H16.4558L16.5447 9.21705H16.4475C16.3916 9.21705 16.3657 9.20248 16.369 9.17124L16.3643 8.98755H15.8861V8.9885C15.7315 8.99183 15.2698 9.00383 15.1763 9.02954C15.0632 9.05964 14.944 9.1482 14.944 9.1482L14.9908 8.98564H14.5435L14.4503 9.30819L13.9828 10.9084H13.8921L13.8032 11.2097H14.6941L14.6642 11.3102H15.1032L15.1323 11.2097H15.2555L15.352 10.8843ZM14.9865 9.62844C14.9149 9.64892 14.7816 9.71101 14.7816 9.71101L14.9001 9.30819H15.2555L15.1698 9.60169C15.1698 9.60169 15.06 9.60835 14.9865 9.62844ZM14.9933 10.2039C14.9933 10.2039 14.8817 10.2184 14.8082 10.2355C14.7358 10.2582 14.6001 10.3296 14.6001 10.3296L14.7226 9.91042H15.0798L14.9933 10.2039ZM14.7942 10.8881H14.4377L14.541 10.5343H14.8964L14.7942 10.8881ZM15.6527 9.91042H16.1666L16.0927 10.1574H15.572L15.4939 10.4275H15.9495L15.6045 10.9293C15.5803 10.9661 15.5587 10.9792 15.5346 10.9896C15.5105 11.0022 15.4787 11.0171 15.4421 11.0171H15.3157L15.2288 11.3129H15.5594C15.7313 11.3129 15.8328 11.2321 15.9077 11.1261L16.1443 10.7917L16.1951 11.1313C16.2058 11.1949 16.2501 11.2321 16.2801 11.2466C16.3132 11.2637 16.3474 11.2932 16.3957 11.2975C16.4475 11.2998 16.4849 11.3016 16.5098 11.3016H16.6722L16.7698 10.9706H16.7057C16.6689 10.9706 16.6056 10.9642 16.5948 10.9523C16.584 10.9379 16.584 10.9156 16.5782 10.8817L16.5267 10.5413H16.3156L16.4082 10.4275H16.9279L17.0078 10.1574H16.5267L16.6016 9.91042H17.0813L17.1702 9.60578H15.7402L15.6527 9.91042ZM11.3126 10.9568L11.4325 10.5447H11.9255L12.0155 10.2381H11.5222L11.5975 9.98444H12.0796L12.169 9.68761H10.9626L10.8751 9.98444H11.1492L11.076 10.2381H10.8012L10.7102 10.5499H10.9841L10.8243 11.0952C10.8027 11.1674 10.8344 11.1949 10.8545 11.2284C10.8751 11.2611 10.8959 11.2827 10.9427 11.295C10.9911 11.3061 11.0241 11.3128 11.0691 11.3128H11.6249L11.7239 10.9732L11.4775 11.0082C11.43 11.0082 11.2982 11.0023 11.3126 10.9568ZM11.3691 8.98378L11.2442 9.217C11.2175 9.26795 11.1934 9.29957 11.1718 9.31414C11.1527 9.32642 11.1149 9.33156 11.0601 9.33156H10.995L10.9078 9.62992H11.1243C11.2284 9.62992 11.3083 9.5905 11.3465 9.57078C11.3875 9.54812 11.3983 9.56107 11.43 9.52945L11.5031 9.46403H12.179L12.2687 9.15339H11.7739L11.8603 8.98378H11.3691ZM12.367 10.9628C12.3555 10.9457 12.3638 10.9155 12.3814 10.8526L12.5662 10.221H13.2234C13.3192 10.2196 13.3883 10.2184 13.4333 10.2151C13.4816 10.2098 13.5342 10.192 13.5914 10.16C13.6505 10.1265 13.6807 10.0912 13.7063 10.0506C13.7348 10.0101 13.7805 9.92158 13.8198 9.78502L14.052 8.98566L13.37 8.98976C13.37 8.98976 13.16 9.02175 13.0675 9.05708C12.9742 9.09651 12.8409 9.20659 12.8409 9.20659L12.9025 8.98747H12.4812L11.8913 11.0082C11.8704 11.0866 11.8564 11.1436 11.8532 11.1778C11.8521 11.2146 11.8982 11.2511 11.928 11.2786C11.9633 11.3061 12.0155 11.3017 12.0656 11.3061C12.1182 11.3102 12.1931 11.3128 12.2964 11.3128H12.6202L12.7196 10.9662L12.4297 10.9944C12.3988 10.9944 12.3764 10.9773 12.367 10.9628ZM12.6854 9.79435H13.3757L13.3318 9.93644C13.3256 9.93977 13.3109 9.92939 13.2406 9.93796H12.6429L12.6854 9.79435ZM12.8237 9.31782H13.5198L13.4697 9.48895C13.4697 9.48895 13.1416 9.48562 13.0891 9.49562C12.8579 9.53695 12.7228 9.66456 12.7228 9.66456L12.8237 9.31782ZM13.3473 10.4122C13.3415 10.4335 13.3325 10.4464 13.3199 10.4561C13.3059 10.4655 13.2832 10.4688 13.2493 10.4688H13.151L13.1568 10.2958H12.7477L12.7311 11.1417C12.7304 11.2027 12.7361 11.2381 12.7794 11.2664C12.8226 11.3017 12.9558 11.3062 13.1351 11.3062H13.3915L13.4841 10.9895L13.2609 11.0022L13.1867 11.0067C13.1765 11.0022 13.1668 10.9981 13.156 10.987C13.1466 10.9773 13.1308 10.9832 13.1334 10.9222L13.1351 10.7054L13.3692 10.6954C13.4956 10.6954 13.5496 10.6529 13.5957 10.6124C13.6397 10.5737 13.6541 10.5291 13.6707 10.4688L13.7099 10.2768H13.3883L13.3473 10.4122Z" fill="#FEFEFE"/>
</svg>
