<svg width="25" height="17" viewBox="0 0 25 17" fill="none" xmlns="http://www.w3.org/2000/svg">
<rect width="25" height="17" rx="2.5" fill="white"/>
<path fill-rule="evenodd" clip-rule="evenodd" d="M7.63593 11.5159H6.12141L4.98571 7.21927C4.9318 7.02163 4.81735 6.8469 4.64899 6.76454C4.22882 6.55759 3.76583 6.39288 3.26074 6.30981V6.14439H5.70051C6.03723 6.14439 6.28977 6.39288 6.33186 6.68147L6.92113 9.7808L8.43491 6.14439H9.90733L7.63593 11.5159ZM10.7491 11.5159H9.3188L10.4966 6.14439H11.9269L10.7491 11.5159ZM13.7774 7.63247C13.8195 7.34316 14.0721 7.17774 14.3667 7.17774C14.8297 7.13621 15.334 7.21928 15.7549 7.42552L16.0075 6.269C15.5866 6.10358 15.1236 6.02051 14.7034 6.02051C13.3152 6.02051 12.305 6.76455 12.305 7.79718C12.305 8.58275 13.0205 8.99523 13.5256 9.24372C14.0721 9.49149 14.2825 9.65691 14.2404 9.90469C14.2404 10.2763 13.8195 10.4418 13.3994 10.4418C12.8943 10.4418 12.3892 10.3179 11.9269 10.1109L11.6744 11.2682C12.1795 11.4744 12.7259 11.5575 13.231 11.5575C14.7876 11.5983 15.7549 10.855 15.7549 9.73927C15.7549 8.33426 13.7774 8.25191 13.7774 7.63247ZM20.7608 11.5159L19.6251 6.14439H18.4052C18.1526 6.14439 17.9001 6.30981 17.8159 6.55759L15.7129 11.5159H17.1853L17.4792 10.7311H19.2883L19.4567 11.5159H20.7608ZM18.6156 7.59094L19.0358 9.61539H17.858L18.6156 7.59094Z" fill="#172B85"/>
</svg>
