<svg width="40" height="18" viewBox="0 0 40 18" fill="none" xmlns="http://www.w3.org/2000/svg">
<path fill-rule="evenodd" clip-rule="evenodd" d="M18.4483 13.6491V8.81555H20.943C21.9652 8.81555 22.8281 8.47302 23.5315 7.79746L23.7003 7.6262C24.9851 6.22752 24.9007 4.04863 23.5315 2.75461C22.8468 2.06954 21.909 1.69846 20.943 1.71749H16.9384V13.6491H18.4483ZM18.4485 7.34992V3.18242H20.9811C21.5252 3.18242 22.0411 3.39175 22.4256 3.77234C23.2417 4.57159 23.2605 5.90366 22.4725 6.73145C22.088 7.14059 21.5439 7.36894 20.9811 7.34992H18.4485ZM30.7435 6.12266C30.0964 5.52323 29.2148 5.21875 28.0988 5.21875C26.6639 5.21875 25.5853 5.75158 24.8726 6.80773L26.2043 7.65455C26.692 6.93142 27.3579 6.56986 28.2019 6.56986C28.7365 6.56986 29.2523 6.76967 29.6556 7.13123C30.0495 7.47376 30.2746 7.96853 30.2746 8.49185V8.8439C29.6931 8.52039 28.9616 8.34913 28.0613 8.34913C27.0109 8.34913 26.1668 8.59651 25.5385 9.1008C24.9101 9.60508 24.5912 10.2711 24.5912 11.1179C24.5725 11.8886 24.9007 12.6213 25.4822 13.1161C26.073 13.6489 26.8233 13.9153 27.7049 13.9153C28.7459 13.9153 29.5712 13.4491 30.1996 12.5166H30.2652V13.6489H31.7095V8.61554C31.7095 7.5594 31.3906 6.72209 30.7435 6.12266ZM26.6455 12.1456C26.336 11.9172 26.1484 11.5461 26.1484 11.1465C26.1484 10.6993 26.3547 10.3282 26.7581 10.0333C27.1708 9.73833 27.6867 9.58609 28.2964 9.58609C29.1406 9.57657 29.7972 9.76687 30.2662 10.1475C30.2662 10.7945 30.0129 11.3558 29.5158 11.8316C29.0656 12.2883 28.4559 12.5452 27.818 12.5452C27.3959 12.5547 26.9832 12.412 26.6455 12.1456ZM34.9545 17.236L40.0001 5.48516H38.3589L36.0236 11.3463H35.9955L33.604 5.48516H31.9627L35.2733 13.1256L33.3976 17.236H34.9545Z" fill="white"/>
<path d="M13.2353 7.76758C13.2353 7.30136 13.1978 6.83513 13.1228 6.37842H6.75479V9.01402H10.403C10.253 9.86084 9.76529 10.622 9.05252 11.0978V12.8104H11.2283C12.5038 11.6211 13.2353 9.86084 13.2353 7.76758Z" fill="white"/>
<path d="M6.75509 14.4658C8.57452 14.4658 10.1126 13.8569 11.2286 12.8103L9.05282 11.0976C8.44322 11.5163 7.6648 11.7541 6.75509 11.7541C4.99193 11.7541 3.50075 10.5457 2.96618 8.92822H0.724716V10.698C1.86889 13.0101 4.20414 14.4658 6.75509 14.4658Z" fill="white"/>
<path d="M2.96633 8.92881C2.68493 8.08199 2.68493 7.15906 2.96633 6.30272V4.54248H0.724513C-0.241626 6.47399 -0.241626 8.75755 0.724513 10.6891L2.96633 8.92881Z" fill="white"/>
<path d="M6.75509 3.4763C7.72108 3.45727 8.64955 3.82835 9.34356 4.5039L11.2755 2.54385C10.0469 1.38304 8.43384 0.745545 6.75509 0.764574C4.20414 0.764574 1.86889 2.22986 0.724716 4.54196L2.96618 6.31172C3.50075 4.68468 4.99193 3.4763 6.75509 3.4763Z" fill="white"/>
</svg>
