<svg width="40" height="18" viewBox="0 0 40 18" fill="none" xmlns="http://www.w3.org/2000/svg">
<path fill-rule="evenodd" clip-rule="evenodd" d="M18.4494 13.6491V8.81555H20.9441C21.9663 8.81555 22.8292 8.47302 23.5325 7.79746L23.7014 7.6262C24.9862 6.22752 24.9018 4.04863 23.5325 2.75461C22.8479 2.06954 21.9101 1.69846 20.9441 1.71749H16.9395V13.6491H18.4494ZM18.4496 7.34992V3.18242H20.9822C21.5262 3.18242 22.0421 3.39175 22.4267 3.77234C23.2428 4.57159 23.2615 5.90366 22.4736 6.73145C22.089 7.14059 21.545 7.36894 20.9822 7.34992H18.4496ZM30.7446 6.12266C30.0975 5.52323 29.2159 5.21875 28.0999 5.21875C26.665 5.21875 25.5864 5.75158 24.8737 6.80773L26.2054 7.65455C26.6931 6.93142 27.359 6.56986 28.203 6.56986C28.7376 6.56986 29.2534 6.76967 29.6567 7.13123C30.0506 7.47376 30.2757 7.96853 30.2757 8.49185V8.8439C29.6942 8.52039 28.9627 8.34913 28.0624 8.34913C27.012 8.34913 26.1679 8.59651 25.5395 9.1008C24.9112 9.60508 24.5923 10.2711 24.5923 11.1179C24.5736 11.8886 24.9018 12.6213 25.4833 13.1161C26.0741 13.6489 26.8244 13.9153 27.706 13.9153C28.747 13.9153 29.5723 13.4491 30.2007 12.5166H30.2663V13.6489H31.7106V8.61554C31.7106 7.5594 31.3917 6.72209 30.7446 6.12266ZM26.6466 12.1456C26.3371 11.9172 26.1495 11.5461 26.1495 11.1465C26.1495 10.6993 26.3558 10.3282 26.7592 10.0333C27.1719 9.73833 27.6878 9.58609 28.2975 9.58609C29.1417 9.57657 29.7983 9.76687 30.2673 10.1475C30.2673 10.7945 30.014 11.3558 29.5169 11.8316C29.0666 12.2883 28.4569 12.5452 27.8191 12.5452C27.397 12.5547 26.9843 12.412 26.6466 12.1456ZM34.9556 17.236L40.0012 5.48516H38.36L36.0247 11.3463H35.9966L33.6051 5.48516H31.9638L35.2744 13.1256L33.3987 17.236H34.9556Z" fill="white"/>
<path d="M13.2364 7.76709C13.2364 7.30087 13.1989 6.83464 13.1239 6.37793H6.75586V9.01354H10.4041C10.254 9.86035 9.76636 10.6215 9.05359 11.0973V12.8099H11.2294C12.5049 11.6206 13.2364 9.86035 13.2364 7.76709Z" fill="#4285F4"/>
<path d="M6.7562 14.4654C8.57563 14.4654 10.1137 13.8564 11.2297 12.8098L9.05394 11.0971C8.44433 11.5158 7.66592 11.7536 6.7562 11.7536C4.99305 11.7536 3.50187 10.5453 2.96729 8.92773H0.72583V10.6975C1.87001 13.0096 4.20525 14.4654 6.7562 14.4654Z" fill="#34A853"/>
<path d="M2.9674 8.92833C2.686 8.08151 2.686 7.15857 2.9674 6.30223V4.54199H0.725581C-0.240558 6.4735 -0.240558 8.75706 0.725581 10.6886L2.9674 8.92833Z" fill="#FBBC04"/>
<path d="M6.7562 3.47581C7.72219 3.45678 8.65066 3.82786 9.34467 4.50341L11.2766 2.54336C10.0481 1.38255 8.43495 0.745056 6.7562 0.764086C4.20525 0.764086 1.87001 2.22937 0.72583 4.54147L2.96729 6.31123C3.50187 4.68419 4.99305 3.47581 6.7562 3.47581Z" fill="#EA4335"/>
</svg>
