<svg width="16" height="16" viewBox="0 0 16 16" fill="none" xmlns="http://www.w3.org/2000/svg">
<path d="M14 1.33301V14.6663" stroke="#4723AD" stroke-linecap="round"/>
<path d="M11.3333 7.66667C11.3333 7.04359 11.3333 6.73205 11.1994 6.5C11.1116 6.34798 10.9854 6.22174 10.8333 6.13397C10.6013 6 10.2897 6 9.66667 6H3.66667C3.04359 6 2.73205 6 2.5 6.13397C2.34798 6.22174 2.22174 6.34798 2.13397 6.5C2 6.73205 2 7.04359 2 7.66667C2 8.28974 2 8.60128 2.13397 8.83333C2.22174 8.98535 2.34798 9.11159 2.5 9.19936C2.73205 9.33333 3.04359 9.33333 3.66667 9.33333H9.66667C10.2897 9.33333 10.6013 9.33333 10.8333 9.19936C10.9854 9.11159 11.1116 8.98535 11.1994 8.83333C11.3333 8.60128 11.3333 8.28974 11.3333 7.66667Z" stroke="#4723AD"/>
</svg>
