<svg width="24" height="17" viewBox="0 0 24 17" fill="none" xmlns="http://www.w3.org/2000/svg">
<rect width="24" height="17" rx="2.5" fill="#1F72CD"/>
<path fill-rule="evenodd" clip-rule="evenodd" d="M4.32445 5.97168L2.08691 11.237H4.76556L5.09763 10.3975H5.85668L6.18875 11.237H9.13718V10.5963L9.39991 11.237H10.9251L11.1878 10.5828V11.237H17.3197L18.0653 10.4193L18.7635 11.237L21.913 11.2438L19.6684 8.61906L21.913 5.97168H18.8124L18.0865 6.77428L17.4104 5.97168H10.7396L10.1668 7.33071L9.58054 5.97168H6.90749V6.59062L6.61013 5.97168H4.32445ZM13.4812 6.71937H17.0025L18.0795 7.95643L19.1912 6.71937H20.2682L18.6318 8.61832L20.2682 10.4954H19.1423L18.0654 9.24395L16.948 10.4954H13.4812V6.71937ZM14.3508 8.19137V7.50166V7.501H16.548L17.5067 8.60403L16.5055 9.71309H14.3508V8.96012H16.2718V8.19137H14.3508ZM4.84272 6.71937H6.14842L7.63257 10.2898V6.71937H9.06291L10.2092 9.27938L11.2657 6.71937H12.6889V10.4976H11.8229L11.8159 7.537L10.5534 10.4976H9.7787L8.50912 7.537V10.4976H6.7276L6.38986 9.65058H4.56517L4.22812 10.4969H3.27361L4.84272 6.71937ZM4.87674 8.86755L5.47791 7.35863L6.07837 8.86755H4.87674Z" fill="white"/>
</svg>
