<svg width="40" height="18" viewBox="0 0 40 18" fill="none" xmlns="http://www.w3.org/2000/svg">
<path fill-rule="evenodd" clip-rule="evenodd" d="M5.3395 3.82684C6.08958 3.88946 6.83965 3.45116 7.30845 2.89546C7.76944 2.32411 8.07416 1.55709 7.99602 0.774414C7.33189 0.805721 6.51149 1.21271 6.0427 1.78406C5.61296 2.27715 5.24574 3.07548 5.3395 3.82684ZM14.2629 13.9063V1.70443H18.8337C21.1933 1.70443 22.8419 3.33239 22.8419 5.71172C22.8419 8.09105 21.162 9.73466 18.7712 9.73466H16.1537V13.9063H14.2629ZM7.9884 3.97459C7.3276 3.93649 6.72464 4.17366 6.23762 4.36523C5.92421 4.48851 5.65881 4.5929 5.45689 4.5929C5.2303 4.5929 4.95394 4.48292 4.64365 4.35945C4.23708 4.19765 3.77224 4.01267 3.28479 4.02155C2.16749 4.0372 1.12832 4.67117 0.557945 5.68082C-0.614052 7.70011 0.253226 10.6899 1.38616 12.3335C1.9409 13.1475 2.60503 14.0398 3.48012 14.0085C3.86511 13.9939 4.14205 13.8762 4.42865 13.7544C4.75861 13.6141 5.10138 13.4684 5.6366 13.4684C6.15326 13.4684 6.48104 13.6103 6.79569 13.7465C7.09487 13.8761 7.38218 14.0004 7.8087 13.9928C8.71504 13.9771 9.28541 13.1788 9.84016 12.3648C10.4388 11.4912 10.7019 10.6386 10.7418 10.5092L10.7465 10.4943C10.7455 10.4933 10.7381 10.4899 10.7251 10.4839C10.525 10.3921 8.99537 9.69069 8.9807 7.80969C8.96597 6.23086 10.1939 5.43093 10.3872 5.30501C10.399 5.29734 10.4069 5.29217 10.4105 5.28948C9.6292 4.13112 8.41032 4.0059 7.9884 3.97459ZM26.2958 14.0011C27.4835 14.0011 28.5851 13.3985 29.0852 12.4436H29.1243V13.9072H30.8744V7.83366C30.8744 6.07265 29.468 4.93778 27.3038 4.93778C25.2957 4.93778 23.8112 6.0883 23.7565 7.6693H25.4598C25.6005 6.91794 26.2958 6.42485 27.2491 6.42485C28.4054 6.42485 29.0539 6.9649 29.0539 7.95889V8.63199L26.6943 8.77287C24.4988 8.90593 23.3112 9.806 23.3112 11.3713C23.3112 12.9523 24.5378 14.0011 26.2958 14.0011ZM26.8031 12.5534C25.7952 12.5534 25.1545 12.0681 25.1545 11.3246C25.1545 10.5575 25.7717 10.1114 26.9515 10.041L29.0533 9.90792V10.5967C29.0533 11.7394 28.0845 12.5534 26.8031 12.5534ZM36.6794 14.3843C35.9215 16.521 35.0542 17.2254 33.2102 17.2254C33.0696 17.2254 32.6008 17.2097 32.4914 17.1784V15.7148C32.6086 15.7305 32.8977 15.7461 33.0462 15.7461C33.8822 15.7461 34.351 15.3939 34.6401 14.4782L34.812 13.9381L31.6085 5.0548H33.5853L35.8121 12.2632H35.8511L38.0779 5.0548H40L36.6794 14.3843ZM16.1538 3.30293H18.3337C19.9745 3.30293 20.9121 4.17952 20.9121 5.72139C20.9121 7.26325 19.9745 8.14768 18.3259 8.14768H16.1538V3.30293Z" fill="white"/>
</svg>
