<svg width="25" height="25" viewBox="0 0 25 25" fill="none" xmlns="http://www.w3.org/2000/svg">
<path d="M2.5 12.5C2.5 8.72876 2.5 6.84315 3.67157 5.67157C4.84315 4.5 6.72876 4.5 10.5 4.5H14.5C18.2712 4.5 20.1569 4.5 21.3284 5.67157C22.5 6.84315 22.5 8.72876 22.5 12.5C22.5 16.2712 22.5 18.1569 21.3284 19.3284C20.1569 20.5 18.2712 20.5 14.5 20.5H10.5C6.72876 20.5 4.84315 20.5 3.67157 19.3284C2.5 18.1569 2.5 16.2712 2.5 12.5Z" stroke="#2E2A36" stroke-width="2"/>
<path d="M10.5 16.5H6.5" stroke="#2E2A36" stroke-width="2" stroke-linecap="round"/>
<path d="M14.5 16.5H13" stroke="#2E2A36" stroke-width="2" stroke-linecap="round"/>
<path d="M2.5 10.5L22.5 10.5" stroke="#2E2A36" stroke-width="2" stroke-linecap="round"/>
</svg>
