<svg width="24" height="17" viewBox="0 0 24 17" fill="none" xmlns="http://www.w3.org/2000/svg">
<rect width="24" height="17" rx="2.5" fill="white"/>
<path fill-rule="evenodd" clip-rule="evenodd" d="M12.2236 12.4287C11.3078 13.211 10.1199 13.6833 8.82189 13.6833C5.92557 13.6833 3.57764 11.332 3.57764 8.43148C3.57764 5.531 5.92557 3.17969 8.82189 3.17969C10.1199 3.17969 11.3078 3.65196 12.2236 4.43429C13.1393 3.65197 14.3272 3.1797 15.6253 3.1797C18.5216 3.1797 20.8695 5.53101 20.8695 8.4315C20.8695 11.332 18.5216 13.6833 15.6253 13.6833C14.3272 13.6833 13.1393 13.211 12.2236 12.4287Z" fill="#ED0006"/>
<path fill-rule="evenodd" clip-rule="evenodd" d="M12.2236 12.4287C13.3512 11.4654 14.0662 10.0321 14.0662 8.43148C14.0662 6.83089 13.3512 5.39754 12.2236 4.43427C13.1394 3.65195 14.3273 3.17969 15.6253 3.17969C18.5216 3.17969 20.8696 5.531 20.8696 8.43148C20.8696 11.332 18.5216 13.6833 15.6253 13.6833C14.3273 13.6833 13.1394 13.211 12.2236 12.4287Z" fill="#F9A000"/>
<path fill-rule="evenodd" clip-rule="evenodd" d="M12.2237 12.4289C13.3512 11.4657 14.0662 10.0323 14.0662 8.43176C14.0662 6.83118 13.3512 5.39785 12.2237 4.43457C11.0961 5.39785 10.3811 6.83118 10.3811 8.43176C10.3811 10.0323 11.0961 11.4657 12.2237 12.4289Z" fill="#FF5E00"/>
</svg>
