<svg width="46" height="21" viewBox="0 0 46 21" fill="none" xmlns="http://www.w3.org/2000/svg">
<g clip-path="url(#clip0_1_7121)">
<path d="M18.4291 11.3322L16.1836 17.3964L15.943 16.1626C15.3816 14.6512 14.1663 13.0657 12.7535 12.4179L14.814 20.2096H17.2508L20.8721 11.3198H18.4291V11.3322Z" fill="black"/>
<path d="M20.3601 20.2281L21.7975 11.3198H24.0986L22.6612 20.2281H20.3601Z" fill="black"/>
<path d="M31.0019 11.5419C30.5453 11.3629 29.8297 11.1655 28.9414 11.1655C26.6649 11.1655 25.0671 12.3747 25.0548 14.102C25.0425 15.3852 26.1961 16.0947 27.0659 16.5203C27.9667 16.9583 28.2628 17.236 28.2628 17.6246C28.2566 18.223 27.5471 18.4944 26.8871 18.4944C25.9679 18.4944 25.4805 18.3587 24.7217 18.0318L24.4256 17.8899L24.1048 19.8825C24.6415 20.1293 25.6347 20.3452 26.6711 20.3575C29.0832 20.3575 30.6564 19.1607 30.6749 17.3161C30.6872 16.2982 30.0703 15.5333 28.744 14.8978C27.942 14.4845 27.4485 14.2131 27.4546 13.7936C27.4546 13.4234 27.8679 13.0286 28.7748 13.0286C29.5274 13.0163 30.0703 13.189 30.496 13.3741L30.6996 13.4789L31.0019 11.5418V11.5419Z" fill="black"/>
<path d="M36.8996 11.3321H35.1229C34.5738 11.3321 34.1605 11.4863 33.9137 12.0724L30.5022 20.2341H32.9143C32.9143 20.2341 33.3091 19.136 33.4017 18.8954C33.667 18.8954 36.0112 18.9016 36.3444 18.9016C36.4184 19.21 36.622 20.2341 36.622 20.2341H38.7627L36.8996 11.332V11.3321ZM34.0618 17.0694C34.253 16.5573 34.9748 14.577 34.9748 14.577C34.9624 14.6017 35.166 14.065 35.2832 13.7257L35.4375 14.4907C35.4375 14.4907 35.8816 16.619 35.9742 17.0632C35.6164 17.0694 34.5121 17.0694 34.0618 17.0694Z" fill="black"/>
<path d="M14.0923 11.3262H10.3846L10.3599 11.4804C13.2409 12.2207 15.1472 14.0283 15.9368 16.1689L15.1348 12.0726C14.9991 11.5112 14.592 11.3447 14.0922 11.3262H14.0923Z" fill="#F2A724"/>
<path d="M3.42584 9.17285H1.96376L0.267242 1.54781L1.88973 1.27637L3.04953 7.24192L5.99837 1.35655H7.553L3.42586 9.17285H3.42584Z" fill="black"/>
<path d="M11.057 6.68071H7.55914C7.46044 7.7418 7.95397 8.20449 8.79297 8.20449C9.49008 8.20449 10.107 7.94539 10.7671 7.52589L10.7609 8.58698C10.1132 8.99415 9.36053 9.25324 8.47835 9.25324C6.95456 9.25324 5.94899 8.3834 6.25129 6.42161C6.52273 4.65107 7.7504 3.57764 9.16929 3.57764C10.8041 3.57764 11.347 4.8053 11.1126 6.35375C11.1002 6.46479 11.0632 6.6005 11.057 6.68071ZM8.99654 4.51534C8.45367 4.51534 7.94779 4.94101 7.71336 5.83553H9.87872C9.91575 4.99035 9.65047 4.51534 8.99654 4.51534Z" fill="black"/>
<path d="M13.3334 6.01428L12.8523 9.13585H11.5012L12.3402 3.6885H13.4938V4.78043C13.9503 4.15119 14.5734 3.62063 15.4309 3.57129L15.4371 4.91616C14.5734 4.97785 13.8085 5.4282 13.3334 6.01428H13.3334Z" fill="black"/>
<path d="M15.4125 9.1357L16.2515 3.68835H17.6025L16.7697 9.1357H15.4124H15.4125ZM17.0781 2.77533C16.6278 2.77533 16.3132 2.46071 16.3872 2.01036C16.4612 1.54767 16.8684 1.2207 17.3187 1.2207C17.7567 1.2207 18.0714 1.54767 17.9973 2.01036C17.9295 2.46071 17.5223 2.77533 17.0781 2.77533Z" fill="black"/>
<path d="M21.3533 2.20174C20.8907 2.20174 20.6131 2.40532 20.539 2.89269L20.4156 3.69469H21.452V4.79896H20.2429L19.5766 9.13586H18.2318L18.898 4.79278H18.1084L18.2811 3.68851H19.0708L19.2126 2.7508C19.3977 1.54166 20.2367 1.09131 21.3533 1.09131C21.5878 1.09131 21.7667 1.11599 21.9024 1.13449L21.9147 2.23877C21.779 2.22643 21.5816 2.20174 21.3533 2.20174Z" fill="black"/>
<path d="M21.3657 9.1357L22.2047 3.68835H23.5557L22.7229 9.1357H21.3657ZM23.0375 2.77533C22.5872 2.77533 22.2725 2.46071 22.3404 2.01036C22.4144 1.54767 22.8216 1.2207 23.2719 1.2207C23.71 1.2207 24.0246 1.54767 23.9506 2.01036C23.8827 2.46071 23.4755 2.77533 23.0375 2.77533Z" fill="black"/>
<path d="M28.8118 6.68071H25.3139C25.2214 7.7418 25.7087 8.20449 26.5477 8.20449C27.2448 8.20449 27.8618 7.94539 28.5218 7.52589L28.5157 8.58698C27.8679 8.99415 27.1153 9.25324 26.2331 9.25324C24.7093 9.25324 23.7038 8.3834 24.0061 6.42161C24.2775 4.65107 25.5052 3.57764 26.9241 3.57764C28.5589 3.57764 29.1018 4.8053 28.8673 6.35375C28.855 6.46479 28.818 6.6005 28.8118 6.68071ZM26.7513 4.51534C26.2084 4.51534 25.7026 4.94101 25.4681 5.83553H27.6335C27.6705 4.99035 27.4052 4.51534 26.7513 4.51534Z" fill="black"/>
<path d="M32.8156 9.13597L32.8217 8.37716C32.3652 8.83985 31.773 9.247 31.0204 9.247C29.8791 9.247 29.0956 8.40182 29.3794 6.56342C29.694 4.53378 30.9463 3.63308 32.211 3.63308C32.7292 3.63308 33.1364 3.72562 33.4448 3.83665L33.852 1.20859L35.24 0.992676L33.9877 9.13593H32.8156V9.13597ZM33.2721 4.9533C32.9575 4.79291 32.7107 4.71887 32.248 4.71887C31.5386 4.71887 30.9278 5.29261 30.7489 6.48941C30.5885 7.5505 30.9587 8.04404 31.5571 8.04404C32.0506 8.04404 32.4824 7.74792 32.9143 7.29756L33.2721 4.95329V4.9533Z" fill="black"/>
<path d="M38.1272 9.19163C37.4856 9.19163 36.9612 9.08676 36.48 8.92019L37.3684 3.13354L38.4172 2.97314L38.0347 5.47782C38.3431 5.20638 38.7688 4.92876 39.287 4.92876C40.1568 4.92876 40.7429 5.57652 40.527 6.96458C40.2926 8.48218 39.3548 9.19163 38.1272 9.19163ZM38.886 5.82944C38.5467 5.82944 38.2012 6.0577 37.8989 6.36616L37.609 8.2354C37.8126 8.30943 37.9483 8.34645 38.2382 8.34645C38.886 8.34645 39.3425 7.95162 39.4844 7.01392C39.6078 6.22427 39.3425 5.82944 38.886 5.82944Z" fill="black"/>
<path d="M42.9453 9.36425C42.4209 10.3822 41.9027 10.6968 41.1069 10.6968C40.928 10.6968 40.8293 10.6783 40.7368 10.6536L40.7306 9.80842C40.8601 9.84545 41.002 9.87011 41.1994 9.87011C41.4956 9.87011 41.7608 9.73438 41.9336 9.4321L42.0693 9.16066L41.1995 5.0952L42.2914 4.95947L42.7973 7.89597L44.1606 5.015H45.1786L42.9453 9.36423L42.9453 9.36425Z" fill="black"/>
</g>
<defs>
<clipPath id="clip0_1_7121">
<rect width="45.4458" height="19.4713" fill="white" transform="translate(0 0.939453)"/>
</clipPath>
</defs>
</svg>
