<svg width="27" height="25" viewBox="0 0 27 25" fill="none" xmlns="http://www.w3.org/2000/svg">
<path d="M9.81925 15.814C9.69737 15.8786 9.56021 15.916 9.41436 15.916C9.07678 15.916 8.78338 15.7211 8.62932 15.4326L8.57032 15.2972L6.11258 9.63714C6.08605 9.57562 6.06963 9.50597 6.06963 9.43821C6.06963 9.17735 6.27117 8.96603 6.51973 8.96603C6.62055 8.96603 6.71391 9.00111 6.78896 9.05966L9.68925 11.2268C9.90109 11.3722 10.1543 11.4575 10.4264 11.4575C10.5889 11.4575 10.7437 11.4258 10.8882 11.3706L24.5272 5.00002C22.0824 1.97627 18.056 0 13.4998 0C6.04376 0 0 5.28584 0 11.8067C0 15.3639 1.81836 18.5663 4.66456 20.7308C4.89282 20.9019 5.04235 21.183 5.04235 21.5002C5.04235 21.6051 5.02092 21.7008 4.99477 21.8009C4.76745 22.6908 4.40363 24.1159 4.38673 24.1827C4.35832 24.2943 4.31404 24.411 4.31404 24.5278C4.31404 24.7887 4.5154 25 4.76434 25C4.86186 25 4.94172 24.9619 5.02413 24.9121L7.97955 23.1213C8.20187 22.9869 8.43721 22.9033 8.69663 22.9033C8.83455 22.9033 8.96784 22.9258 9.0932 22.966C10.4719 23.3822 11.9595 23.6134 13.4999 23.6134C20.9554 23.6134 27 18.3273 27 11.8067C27 9.83162 26.4423 7.97156 25.4621 6.3353L9.91818 15.7542L9.81925 15.814Z" fill="#1AAD19"/>
</svg>
